%
M48
M72
T01C0.0315
T02C0.0320
T03C0.0400
T04C0.0472
T05C0.1260
%
T01
X7217Y9630
X5307Y10900
X7827Y12480
X7217Y14570
X5307Y14700
X7827Y17170
X12107Y17180
X13007Y15140
X12127Y12890
X9677Y11620
X13007Y9630
X14097Y7370
X9677Y7230
X14107Y2400
T02
X14143Y10487
X15143Y11487
X14143Y12487
T03
X5655Y10169
X5655Y9169
X5655Y8169
X5500Y6719
X5500Y5719
X5500Y4719
X5500Y3719
X5500Y2719
T04
X4187Y13657
X4187Y14657
T05
X3582Y1281
X15393Y1281
X15393Y17029
X3582Y17029
M30
