G75*
%MOIN*%
%OFA0B0*%
%FSLAX24Y24*%
%IPPOS*%
%LPD*%
%AMOC8*
5,1,8,0,0,1.08239X$1,22.5*
%
%ADD10C,0.0000*%
%ADD11C,0.0060*%
%ADD12C,0.0030*%
%ADD13C,0.0100*%
%ADD14C,0.0020*%
%ADD15C,0.0120*%
%ADD16C,0.0050*%
D10*
X002401Y001281D02*
X002401Y017029D01*
X002403Y017095D01*
X002408Y017161D01*
X002418Y017227D01*
X002431Y017292D01*
X002447Y017356D01*
X002467Y017419D01*
X002491Y017481D01*
X002518Y017541D01*
X002548Y017600D01*
X002582Y017657D01*
X002619Y017712D01*
X002659Y017765D01*
X002701Y017816D01*
X002747Y017864D01*
X002795Y017910D01*
X002846Y017952D01*
X002899Y017992D01*
X002954Y018029D01*
X003011Y018063D01*
X003070Y018093D01*
X003130Y018120D01*
X003192Y018144D01*
X003255Y018164D01*
X003319Y018180D01*
X003384Y018193D01*
X003450Y018203D01*
X003516Y018208D01*
X003582Y018210D01*
X015393Y018210D01*
X015459Y018208D01*
X015525Y018203D01*
X015591Y018193D01*
X015656Y018180D01*
X015720Y018164D01*
X015783Y018144D01*
X015845Y018120D01*
X015905Y018093D01*
X015964Y018063D01*
X016021Y018029D01*
X016076Y017992D01*
X016129Y017952D01*
X016180Y017910D01*
X016228Y017864D01*
X016274Y017816D01*
X016316Y017765D01*
X016356Y017712D01*
X016393Y017657D01*
X016427Y017600D01*
X016457Y017541D01*
X016484Y017481D01*
X016508Y017419D01*
X016528Y017356D01*
X016544Y017292D01*
X016557Y017227D01*
X016567Y017161D01*
X016572Y017095D01*
X016574Y017029D01*
X016574Y001281D01*
X016572Y001215D01*
X016567Y001149D01*
X016557Y001083D01*
X016544Y001018D01*
X016528Y000954D01*
X016508Y000891D01*
X016484Y000829D01*
X016457Y000769D01*
X016427Y000710D01*
X016393Y000653D01*
X016356Y000598D01*
X016316Y000545D01*
X016274Y000494D01*
X016228Y000446D01*
X016180Y000400D01*
X016129Y000358D01*
X016076Y000318D01*
X016021Y000281D01*
X015964Y000247D01*
X015905Y000217D01*
X015845Y000190D01*
X015783Y000166D01*
X015720Y000146D01*
X015656Y000130D01*
X015591Y000117D01*
X015525Y000107D01*
X015459Y000102D01*
X015393Y000100D01*
X003582Y000100D01*
X003516Y000102D01*
X003450Y000107D01*
X003384Y000117D01*
X003319Y000130D01*
X003255Y000146D01*
X003192Y000166D01*
X003130Y000190D01*
X003070Y000217D01*
X003011Y000247D01*
X002954Y000281D01*
X002899Y000318D01*
X002846Y000358D01*
X002795Y000400D01*
X002747Y000446D01*
X002701Y000494D01*
X002659Y000545D01*
X002619Y000598D01*
X002582Y000653D01*
X002548Y000710D01*
X002518Y000769D01*
X002491Y000829D01*
X002467Y000891D01*
X002447Y000954D01*
X002431Y001018D01*
X002418Y001083D01*
X002408Y001149D01*
X002403Y001215D01*
X002401Y001281D01*
X002952Y001281D02*
X002954Y001331D01*
X002960Y001381D01*
X002970Y001430D01*
X002984Y001478D01*
X003001Y001525D01*
X003022Y001570D01*
X003047Y001614D01*
X003075Y001655D01*
X003107Y001694D01*
X003141Y001731D01*
X003178Y001765D01*
X003218Y001795D01*
X003260Y001822D01*
X003304Y001846D01*
X003350Y001867D01*
X003397Y001883D01*
X003445Y001896D01*
X003495Y001905D01*
X003544Y001910D01*
X003595Y001911D01*
X003645Y001908D01*
X003694Y001901D01*
X003743Y001890D01*
X003791Y001875D01*
X003837Y001857D01*
X003882Y001835D01*
X003925Y001809D01*
X003966Y001780D01*
X004005Y001748D01*
X004041Y001713D01*
X004073Y001675D01*
X004103Y001635D01*
X004130Y001592D01*
X004153Y001548D01*
X004172Y001502D01*
X004188Y001454D01*
X004200Y001405D01*
X004208Y001356D01*
X004212Y001306D01*
X004212Y001256D01*
X004208Y001206D01*
X004200Y001157D01*
X004188Y001108D01*
X004172Y001060D01*
X004153Y001014D01*
X004130Y000970D01*
X004103Y000927D01*
X004073Y000887D01*
X004041Y000849D01*
X004005Y000814D01*
X003966Y000782D01*
X003925Y000753D01*
X003882Y000727D01*
X003837Y000705D01*
X003791Y000687D01*
X003743Y000672D01*
X003694Y000661D01*
X003645Y000654D01*
X003595Y000651D01*
X003544Y000652D01*
X003495Y000657D01*
X003445Y000666D01*
X003397Y000679D01*
X003350Y000695D01*
X003304Y000716D01*
X003260Y000740D01*
X003218Y000767D01*
X003178Y000797D01*
X003141Y000831D01*
X003107Y000868D01*
X003075Y000907D01*
X003047Y000948D01*
X003022Y000992D01*
X003001Y001037D01*
X002984Y001084D01*
X002970Y001132D01*
X002960Y001181D01*
X002954Y001231D01*
X002952Y001281D01*
X014763Y001281D02*
X014765Y001331D01*
X014771Y001381D01*
X014781Y001430D01*
X014795Y001478D01*
X014812Y001525D01*
X014833Y001570D01*
X014858Y001614D01*
X014886Y001655D01*
X014918Y001694D01*
X014952Y001731D01*
X014989Y001765D01*
X015029Y001795D01*
X015071Y001822D01*
X015115Y001846D01*
X015161Y001867D01*
X015208Y001883D01*
X015256Y001896D01*
X015306Y001905D01*
X015355Y001910D01*
X015406Y001911D01*
X015456Y001908D01*
X015505Y001901D01*
X015554Y001890D01*
X015602Y001875D01*
X015648Y001857D01*
X015693Y001835D01*
X015736Y001809D01*
X015777Y001780D01*
X015816Y001748D01*
X015852Y001713D01*
X015884Y001675D01*
X015914Y001635D01*
X015941Y001592D01*
X015964Y001548D01*
X015983Y001502D01*
X015999Y001454D01*
X016011Y001405D01*
X016019Y001356D01*
X016023Y001306D01*
X016023Y001256D01*
X016019Y001206D01*
X016011Y001157D01*
X015999Y001108D01*
X015983Y001060D01*
X015964Y001014D01*
X015941Y000970D01*
X015914Y000927D01*
X015884Y000887D01*
X015852Y000849D01*
X015816Y000814D01*
X015777Y000782D01*
X015736Y000753D01*
X015693Y000727D01*
X015648Y000705D01*
X015602Y000687D01*
X015554Y000672D01*
X015505Y000661D01*
X015456Y000654D01*
X015406Y000651D01*
X015355Y000652D01*
X015306Y000657D01*
X015256Y000666D01*
X015208Y000679D01*
X015161Y000695D01*
X015115Y000716D01*
X015071Y000740D01*
X015029Y000767D01*
X014989Y000797D01*
X014952Y000831D01*
X014918Y000868D01*
X014886Y000907D01*
X014858Y000948D01*
X014833Y000992D01*
X014812Y001037D01*
X014795Y001084D01*
X014781Y001132D01*
X014771Y001181D01*
X014765Y001231D01*
X014763Y001281D01*
X014763Y017029D02*
X014765Y017079D01*
X014771Y017129D01*
X014781Y017178D01*
X014795Y017226D01*
X014812Y017273D01*
X014833Y017318D01*
X014858Y017362D01*
X014886Y017403D01*
X014918Y017442D01*
X014952Y017479D01*
X014989Y017513D01*
X015029Y017543D01*
X015071Y017570D01*
X015115Y017594D01*
X015161Y017615D01*
X015208Y017631D01*
X015256Y017644D01*
X015306Y017653D01*
X015355Y017658D01*
X015406Y017659D01*
X015456Y017656D01*
X015505Y017649D01*
X015554Y017638D01*
X015602Y017623D01*
X015648Y017605D01*
X015693Y017583D01*
X015736Y017557D01*
X015777Y017528D01*
X015816Y017496D01*
X015852Y017461D01*
X015884Y017423D01*
X015914Y017383D01*
X015941Y017340D01*
X015964Y017296D01*
X015983Y017250D01*
X015999Y017202D01*
X016011Y017153D01*
X016019Y017104D01*
X016023Y017054D01*
X016023Y017004D01*
X016019Y016954D01*
X016011Y016905D01*
X015999Y016856D01*
X015983Y016808D01*
X015964Y016762D01*
X015941Y016718D01*
X015914Y016675D01*
X015884Y016635D01*
X015852Y016597D01*
X015816Y016562D01*
X015777Y016530D01*
X015736Y016501D01*
X015693Y016475D01*
X015648Y016453D01*
X015602Y016435D01*
X015554Y016420D01*
X015505Y016409D01*
X015456Y016402D01*
X015406Y016399D01*
X015355Y016400D01*
X015306Y016405D01*
X015256Y016414D01*
X015208Y016427D01*
X015161Y016443D01*
X015115Y016464D01*
X015071Y016488D01*
X015029Y016515D01*
X014989Y016545D01*
X014952Y016579D01*
X014918Y016616D01*
X014886Y016655D01*
X014858Y016696D01*
X014833Y016740D01*
X014812Y016785D01*
X014795Y016832D01*
X014781Y016880D01*
X014771Y016929D01*
X014765Y016979D01*
X014763Y017029D01*
X002952Y017029D02*
X002954Y017079D01*
X002960Y017129D01*
X002970Y017178D01*
X002984Y017226D01*
X003001Y017273D01*
X003022Y017318D01*
X003047Y017362D01*
X003075Y017403D01*
X003107Y017442D01*
X003141Y017479D01*
X003178Y017513D01*
X003218Y017543D01*
X003260Y017570D01*
X003304Y017594D01*
X003350Y017615D01*
X003397Y017631D01*
X003445Y017644D01*
X003495Y017653D01*
X003544Y017658D01*
X003595Y017659D01*
X003645Y017656D01*
X003694Y017649D01*
X003743Y017638D01*
X003791Y017623D01*
X003837Y017605D01*
X003882Y017583D01*
X003925Y017557D01*
X003966Y017528D01*
X004005Y017496D01*
X004041Y017461D01*
X004073Y017423D01*
X004103Y017383D01*
X004130Y017340D01*
X004153Y017296D01*
X004172Y017250D01*
X004188Y017202D01*
X004200Y017153D01*
X004208Y017104D01*
X004212Y017054D01*
X004212Y017004D01*
X004208Y016954D01*
X004200Y016905D01*
X004188Y016856D01*
X004172Y016808D01*
X004153Y016762D01*
X004130Y016718D01*
X004103Y016675D01*
X004073Y016635D01*
X004041Y016597D01*
X004005Y016562D01*
X003966Y016530D01*
X003925Y016501D01*
X003882Y016475D01*
X003837Y016453D01*
X003791Y016435D01*
X003743Y016420D01*
X003694Y016409D01*
X003645Y016402D01*
X003595Y016399D01*
X003544Y016400D01*
X003495Y016405D01*
X003445Y016414D01*
X003397Y016427D01*
X003350Y016443D01*
X003304Y016464D01*
X003260Y016488D01*
X003218Y016515D01*
X003178Y016545D01*
X003141Y016579D01*
X003107Y016616D01*
X003075Y016655D01*
X003047Y016696D01*
X003022Y016740D01*
X003001Y016785D01*
X002984Y016832D01*
X002970Y016880D01*
X002960Y016929D01*
X002954Y016979D01*
X002952Y017029D01*
D11*
X004620Y015165D02*
X004620Y013149D01*
X012793Y012737D02*
X012793Y012487D01*
X012793Y011737D01*
X012943Y011887D02*
X012943Y012487D01*
X012793Y012487D01*
X012793Y012737D02*
X012893Y012837D01*
X013543Y012837D01*
X014043Y012837D02*
X015393Y012837D01*
X015493Y012737D01*
X015493Y010237D01*
X015393Y010137D01*
X014043Y010137D01*
X013543Y010137D02*
X012893Y010137D01*
X012793Y010237D01*
X012793Y010487D01*
X012793Y011237D01*
X012943Y011087D02*
X012943Y010487D01*
X012793Y010487D01*
X013543Y011337D02*
X013843Y011337D01*
X013993Y011337D01*
X014143Y011187D01*
X014143Y010887D01*
X014443Y010887D01*
X014443Y011187D01*
X014593Y011337D01*
X014743Y011337D01*
X015043Y011337D01*
X015043Y011637D01*
X014743Y011637D01*
X014593Y011637D01*
X014443Y011787D01*
X014443Y012087D01*
X014143Y012087D01*
X014143Y011787D01*
X013993Y011637D01*
X013843Y011637D01*
X013543Y011637D01*
X013543Y011337D01*
X013843Y011337D02*
X013843Y011637D01*
X014743Y011637D02*
X014743Y011337D01*
X012739Y001558D02*
X012739Y000917D01*
X012526Y000917D02*
X012953Y000917D01*
X012526Y001344D02*
X012739Y001558D01*
X012308Y001451D02*
X012308Y001024D01*
X012202Y000917D01*
X011988Y000917D01*
X011881Y001024D01*
X012308Y001451D01*
X012202Y001558D01*
X011988Y001558D01*
X011881Y001451D01*
X011881Y001024D01*
X011666Y001024D02*
X011666Y000917D01*
X011559Y000917D01*
X011559Y001024D01*
X011666Y001024D01*
X011342Y001024D02*
X011235Y000917D01*
X011021Y000917D01*
X010914Y001024D01*
X011342Y001451D01*
X011342Y001024D01*
X011342Y001451D02*
X011235Y001558D01*
X011021Y001558D01*
X010914Y001451D01*
X010914Y001024D01*
X010697Y001131D02*
X010697Y001558D01*
X010697Y001131D02*
X010483Y000917D01*
X010270Y001131D01*
X010270Y001558D01*
X010052Y001451D02*
X009946Y001558D01*
X009732Y001558D01*
X009625Y001451D01*
X009408Y001451D02*
X009408Y001344D01*
X009301Y001238D01*
X009088Y001238D01*
X008981Y001344D01*
X008981Y001451D01*
X009088Y001558D01*
X009301Y001558D01*
X009408Y001451D01*
X009301Y001238D02*
X009408Y001131D01*
X009408Y001024D01*
X009301Y000917D01*
X009088Y000917D01*
X008981Y001024D01*
X008981Y001131D01*
X009088Y001238D01*
X008763Y001344D02*
X008657Y001238D01*
X008336Y001238D01*
X008336Y001558D02*
X008336Y000917D01*
X008657Y000917D01*
X008763Y001024D01*
X008763Y001131D01*
X008657Y001238D01*
X008763Y001344D02*
X008763Y001451D01*
X008657Y001558D01*
X008336Y001558D01*
X009625Y000917D02*
X010052Y001344D01*
X010052Y001451D01*
X010052Y000917D02*
X009625Y000917D01*
D12*
X007704Y001667D02*
X007704Y001937D01*
X007524Y001937D02*
X007524Y001667D01*
X007427Y001712D02*
X007427Y001892D01*
X007382Y001937D01*
X007292Y001937D01*
X007247Y001892D01*
X007247Y001712D01*
X007292Y001667D01*
X007382Y001667D01*
X007427Y001712D01*
X007524Y001937D02*
X007704Y001667D01*
X007151Y001712D02*
X007106Y001667D01*
X007016Y001667D01*
X006971Y001712D01*
X006971Y001892D01*
X007016Y001937D01*
X007106Y001937D01*
X007151Y001892D01*
X006875Y001802D02*
X006695Y001802D01*
X006599Y001667D02*
X006419Y001667D01*
X006419Y001937D01*
X006599Y001937D01*
X006509Y001802D02*
X006419Y001802D01*
X006323Y001712D02*
X006277Y001667D01*
X006187Y001667D01*
X006142Y001712D01*
X006142Y001892D01*
X006187Y001937D01*
X006277Y001937D01*
X006323Y001892D01*
X006046Y001847D02*
X006046Y001667D01*
X006046Y001802D02*
X005866Y001802D01*
X005866Y001847D02*
X005866Y001667D01*
X005866Y001847D02*
X005956Y001937D01*
X006046Y001847D01*
X005770Y001937D02*
X005590Y001937D01*
X005590Y001667D01*
X005494Y001667D02*
X005404Y001757D01*
X005449Y001757D02*
X005314Y001757D01*
X005314Y001667D02*
X005314Y001937D01*
X005449Y001937D01*
X005494Y001892D01*
X005494Y001802D01*
X005449Y001757D01*
X005590Y001802D02*
X005680Y001802D01*
X005218Y001667D02*
X005037Y001667D01*
X005037Y001937D01*
X005218Y001937D01*
X005127Y001802D02*
X005037Y001802D01*
X004941Y001937D02*
X004761Y001937D01*
X004851Y001937D02*
X004851Y001667D01*
X004665Y001667D02*
X004665Y001937D01*
X004485Y001937D02*
X004485Y001667D01*
X004391Y001667D02*
X004301Y001667D01*
X004346Y001667D02*
X004346Y001937D01*
X004301Y001937D02*
X004391Y001937D01*
X004485Y001937D02*
X004665Y001667D01*
X004660Y010723D02*
X004750Y010723D01*
X004795Y010768D01*
X004795Y010948D01*
X004750Y010993D01*
X004660Y010993D01*
X004615Y010948D01*
X004615Y010768D01*
X004660Y010723D01*
X004519Y010768D02*
X004474Y010723D01*
X004384Y010723D01*
X004339Y010768D01*
X004339Y010948D01*
X004384Y010993D01*
X004474Y010993D01*
X004519Y010948D01*
X004242Y010858D02*
X004062Y010858D01*
X003966Y010858D02*
X003921Y010813D01*
X003786Y010813D01*
X003786Y010723D02*
X003786Y010993D01*
X003921Y010993D01*
X003966Y010948D01*
X003966Y010858D01*
X003876Y010813D02*
X003966Y010723D01*
X003690Y010723D02*
X003510Y010723D01*
X003510Y010993D01*
X003690Y010993D01*
X003600Y010858D02*
X003510Y010858D01*
X003414Y010723D02*
X003414Y010993D01*
X003234Y010993D02*
X003234Y010723D01*
X003324Y010813D01*
X003414Y010723D01*
X003137Y010768D02*
X003137Y010948D01*
X003092Y010993D01*
X003002Y010993D01*
X002957Y010948D01*
X002957Y010768D01*
X003002Y010723D01*
X003092Y010723D01*
X003137Y010768D01*
X002861Y010858D02*
X002816Y010813D01*
X002681Y010813D01*
X002681Y010723D02*
X002681Y010993D01*
X002816Y010993D01*
X002861Y010948D01*
X002861Y010858D01*
X004891Y010723D02*
X004891Y010993D01*
X005071Y010723D01*
X005071Y010993D01*
X013788Y013092D02*
X013788Y013363D01*
X013923Y013363D01*
X013968Y013318D01*
X013968Y013228D01*
X013923Y013182D01*
X013788Y013182D01*
X013878Y013182D02*
X013968Y013092D01*
X014065Y013047D02*
X014245Y013047D01*
X014341Y013092D02*
X014341Y013273D01*
X014431Y013363D01*
X014521Y013273D01*
X014521Y013092D01*
X014617Y013092D02*
X014752Y013092D01*
X014797Y013137D01*
X014797Y013318D01*
X014752Y013363D01*
X014617Y013363D01*
X014617Y013092D01*
X014521Y013228D02*
X014341Y013228D01*
X014893Y013137D02*
X014938Y013092D01*
X014983Y013092D01*
X015028Y013137D01*
X015028Y013363D01*
X014983Y013363D02*
X015073Y013363D01*
D13*
X004757Y013106D02*
X004757Y015208D01*
X003616Y015208D01*
X003616Y013106D01*
X004757Y013106D01*
D14*
X004621Y011810D02*
X004668Y011764D01*
X004668Y011717D01*
X004621Y011670D01*
X004668Y011623D01*
X004668Y011577D01*
X004621Y011530D01*
X004528Y011530D01*
X004481Y011577D01*
X004391Y011530D02*
X004298Y011623D01*
X004345Y011623D02*
X004205Y011623D01*
X004205Y011530D02*
X004205Y011810D01*
X004345Y011810D01*
X004391Y011764D01*
X004391Y011670D01*
X004345Y011623D01*
X004481Y011764D02*
X004528Y011810D01*
X004621Y011810D01*
X004621Y011670D02*
X004574Y011670D01*
X003181Y012810D02*
X002995Y012810D01*
X003181Y012997D01*
X003181Y013044D01*
X003135Y013090D01*
X003041Y013090D01*
X002995Y013044D01*
X002905Y013044D02*
X002858Y013090D01*
X002765Y013090D01*
X002718Y013044D01*
X002718Y012857D01*
X002765Y012810D01*
X002858Y012810D01*
X002905Y012857D01*
X002977Y016057D02*
X002977Y016337D01*
X002884Y016244D01*
X002790Y016337D01*
X002790Y016057D01*
X003067Y016057D02*
X003067Y016337D01*
X003253Y016337D01*
X003343Y016244D02*
X003436Y016337D01*
X003530Y016244D01*
X003530Y016057D01*
X003619Y016103D02*
X003666Y016057D01*
X003759Y016057D01*
X003806Y016103D01*
X003806Y016150D01*
X003759Y016197D01*
X003666Y016197D01*
X003619Y016244D01*
X003619Y016290D01*
X003666Y016337D01*
X003759Y016337D01*
X003806Y016290D01*
X003895Y016337D02*
X003895Y016103D01*
X003942Y016057D01*
X004035Y016057D01*
X004082Y016103D01*
X004082Y016337D01*
X004171Y016337D02*
X004312Y016337D01*
X004358Y016290D01*
X004358Y016197D01*
X004312Y016150D01*
X004171Y016150D01*
X004171Y016057D02*
X004171Y016337D01*
X004265Y016150D02*
X004358Y016057D01*
X004448Y016057D02*
X004635Y016057D01*
X004724Y016057D02*
X004724Y016337D01*
X004817Y016244D01*
X004911Y016337D01*
X004911Y016057D01*
X005000Y016057D02*
X005187Y016057D01*
X005276Y016057D02*
X005276Y016337D01*
X005463Y016057D01*
X005463Y016337D01*
X005553Y016337D02*
X005739Y016337D01*
X005646Y016337D02*
X005646Y016057D01*
X005829Y016197D02*
X006016Y016197D01*
X006105Y016290D02*
X006105Y016103D01*
X006152Y016057D01*
X006245Y016057D01*
X006292Y016103D01*
X006381Y016103D02*
X006381Y016290D01*
X006428Y016337D01*
X006521Y016337D01*
X006568Y016290D01*
X006568Y016103D01*
X006521Y016057D01*
X006428Y016057D01*
X006381Y016103D01*
X006292Y016290D02*
X006245Y016337D01*
X006152Y016337D01*
X006105Y016290D01*
X006658Y016337D02*
X006658Y016057D01*
X006844Y016057D02*
X006658Y016337D01*
X006844Y016337D02*
X006844Y016057D01*
X006853Y015160D02*
X006760Y015160D01*
X006713Y015114D01*
X006624Y015114D02*
X006624Y015020D01*
X006577Y014973D01*
X006437Y014973D01*
X006437Y014880D02*
X006437Y015160D01*
X006577Y015160D01*
X006624Y015114D01*
X006530Y014973D02*
X006624Y014880D01*
X006713Y014880D02*
X006900Y015067D01*
X006900Y015114D01*
X006853Y015160D01*
X006900Y014880D02*
X006713Y014880D01*
X006703Y014334D02*
X006703Y014054D01*
X006796Y014054D02*
X006609Y014054D01*
X006520Y014054D02*
X006427Y014147D01*
X006473Y014147D02*
X006333Y014147D01*
X006333Y014054D02*
X006333Y014334D01*
X006473Y014334D01*
X006520Y014287D01*
X006520Y014194D01*
X006473Y014147D01*
X006609Y014241D02*
X006703Y014334D01*
X005094Y016197D02*
X005000Y016197D01*
X005000Y016337D02*
X005000Y016057D01*
X005000Y016337D02*
X005187Y016337D01*
X004635Y016337D02*
X004448Y016337D01*
X004448Y016057D01*
X004448Y016197D02*
X004541Y016197D01*
X003530Y016197D02*
X003343Y016197D01*
X003343Y016244D02*
X003343Y016057D01*
X003253Y016057D02*
X003067Y016057D01*
X003067Y016197D02*
X003160Y016197D01*
X006005Y010930D02*
X006145Y010930D01*
X006191Y010884D01*
X006191Y010790D01*
X006145Y010743D01*
X006005Y010743D01*
X006005Y010650D02*
X006005Y010930D01*
X006098Y010743D02*
X006191Y010650D01*
X006281Y010790D02*
X006468Y010790D01*
X006421Y010650D02*
X006421Y010930D01*
X006281Y010790D01*
X009187Y011017D02*
X009234Y010970D01*
X009327Y010970D01*
X009374Y011017D01*
X009374Y011250D01*
X009463Y011204D02*
X009510Y011250D01*
X009603Y011250D01*
X009650Y011204D01*
X009650Y011157D01*
X009603Y011110D01*
X009650Y011063D01*
X009650Y011017D01*
X009603Y010970D01*
X009510Y010970D01*
X009463Y011017D01*
X009557Y011110D02*
X009603Y011110D01*
X009187Y011017D02*
X009187Y011250D01*
X009705Y010690D02*
X009845Y010690D01*
X009891Y010644D01*
X009891Y010550D01*
X009845Y010503D01*
X009705Y010503D01*
X009705Y010410D02*
X009705Y010690D01*
X009798Y010503D02*
X009891Y010410D01*
X009981Y010457D02*
X010028Y010410D01*
X010121Y010410D01*
X010168Y010457D01*
X010168Y010550D01*
X010121Y010597D01*
X010074Y010597D01*
X009981Y010550D01*
X009981Y010690D01*
X010168Y010690D01*
X011337Y009400D02*
X011477Y009400D01*
X011524Y009354D01*
X011524Y009260D01*
X011477Y009213D01*
X011337Y009213D01*
X011337Y009120D02*
X011337Y009400D01*
X011430Y009213D02*
X011524Y009120D01*
X011613Y009167D02*
X011660Y009120D01*
X011753Y009120D01*
X011800Y009167D01*
X011800Y009213D01*
X011753Y009260D01*
X011613Y009260D01*
X011613Y009167D01*
X011613Y009260D02*
X011707Y009354D01*
X011800Y009400D01*
X012291Y008840D02*
X012245Y008794D01*
X012245Y008607D01*
X012291Y008560D01*
X012385Y008560D01*
X012431Y008607D01*
X012521Y008607D02*
X012568Y008560D01*
X012661Y008560D01*
X012708Y008607D01*
X012708Y008700D01*
X012661Y008747D01*
X012614Y008747D01*
X012521Y008700D01*
X012521Y008840D01*
X012708Y008840D01*
X012431Y008794D02*
X012385Y008840D01*
X012291Y008840D01*
X011128Y005970D02*
X010941Y005970D01*
X010851Y005924D02*
X010851Y005830D01*
X010805Y005783D01*
X010665Y005783D01*
X010665Y005690D02*
X010665Y005970D01*
X010805Y005970D01*
X010851Y005924D01*
X010758Y005783D02*
X010851Y005690D01*
X010941Y005690D02*
X010941Y005737D01*
X011128Y005924D01*
X011128Y005970D01*
X009209Y007132D02*
X009022Y007132D01*
X009022Y007412D01*
X008933Y007365D02*
X008933Y007179D01*
X008886Y007132D01*
X008793Y007132D01*
X008746Y007179D01*
X008746Y007365D01*
X008793Y007412D01*
X008886Y007412D01*
X008933Y007365D01*
X008657Y007365D02*
X008657Y007272D01*
X008610Y007225D01*
X008470Y007225D01*
X008470Y007132D02*
X008470Y007412D01*
X008610Y007412D01*
X008657Y007365D01*
X008381Y007365D02*
X008334Y007412D01*
X008240Y007412D01*
X008194Y007365D01*
X008194Y007179D01*
X008240Y007132D01*
X008334Y007132D01*
X008381Y007179D01*
X008104Y007085D02*
X007918Y007085D01*
X007735Y007272D02*
X007641Y007272D01*
X007641Y007132D02*
X007641Y007412D01*
X007828Y007412D01*
X007552Y007412D02*
X007365Y007412D01*
X007365Y007132D01*
X007552Y007132D01*
X007458Y007272D02*
X007365Y007272D01*
X007276Y007272D02*
X007276Y007365D01*
X007229Y007412D01*
X007089Y007412D01*
X007089Y007132D01*
X007089Y007225D02*
X007229Y007225D01*
X007276Y007272D01*
X007182Y007225D02*
X007276Y007132D01*
X006999Y007225D02*
X006999Y007412D01*
X006813Y007412D02*
X006813Y007225D01*
X006906Y007132D01*
X006999Y007225D01*
X008254Y006192D02*
X008254Y005958D01*
X008300Y005911D01*
X008394Y005911D01*
X008441Y005958D01*
X008441Y006192D01*
X008530Y006145D02*
X008577Y006192D01*
X008670Y006192D01*
X008717Y006145D01*
X008717Y006098D01*
X008530Y005911D01*
X008717Y005911D01*
X011795Y002884D02*
X011795Y002697D01*
X011841Y002650D01*
X011935Y002650D01*
X011981Y002697D01*
X012071Y002697D02*
X012071Y002790D01*
X012211Y002790D01*
X012258Y002743D01*
X012258Y002697D01*
X012211Y002650D01*
X012118Y002650D01*
X012071Y002697D01*
X012071Y002790D02*
X012164Y002884D01*
X012258Y002930D01*
X011981Y002884D02*
X011935Y002930D01*
X011841Y002930D01*
X011795Y002884D01*
X013528Y003359D02*
X013528Y003546D01*
X013621Y003639D01*
X013714Y003546D01*
X013714Y003359D01*
X013804Y003359D02*
X013944Y003359D01*
X013991Y003406D01*
X013991Y003592D01*
X013944Y003639D01*
X013804Y003639D01*
X013804Y003359D01*
X013714Y003499D02*
X013528Y003499D01*
X014080Y003592D02*
X014080Y003406D01*
X014127Y003359D01*
X014220Y003359D01*
X014267Y003406D01*
X014356Y003312D02*
X014543Y003312D01*
X014633Y003406D02*
X014679Y003359D01*
X014773Y003359D01*
X014819Y003406D01*
X014909Y003452D02*
X015049Y003452D01*
X015096Y003499D01*
X015096Y003592D01*
X015049Y003639D01*
X014909Y003639D01*
X014909Y003359D01*
X014819Y003592D02*
X014773Y003639D01*
X014679Y003639D01*
X014633Y003592D01*
X014633Y003406D01*
X014267Y003592D02*
X014220Y003639D01*
X014127Y003639D01*
X014080Y003592D01*
X015185Y003592D02*
X015185Y003406D01*
X015232Y003359D01*
X015325Y003359D01*
X015372Y003406D01*
X015372Y003592D01*
X015325Y003639D01*
X015232Y003639D01*
X015185Y003592D01*
X015461Y003639D02*
X015461Y003359D01*
X015648Y003359D01*
X011581Y012350D02*
X011488Y012350D01*
X011441Y012397D01*
X011351Y012397D02*
X011305Y012350D01*
X011211Y012350D01*
X011165Y012397D01*
X011165Y012584D01*
X011211Y012630D01*
X011305Y012630D01*
X011351Y012584D01*
X011441Y012584D02*
X011488Y012630D01*
X011581Y012630D01*
X011628Y012584D01*
X011628Y012537D01*
X011581Y012490D01*
X011628Y012443D01*
X011628Y012397D01*
X011581Y012350D01*
X011581Y012490D02*
X011534Y012490D01*
X010753Y013000D02*
X010753Y013280D01*
X010613Y013140D01*
X010800Y013140D01*
X010524Y013047D02*
X010477Y013000D01*
X010384Y013000D01*
X010337Y013047D01*
X010337Y013234D01*
X010384Y013280D01*
X010477Y013280D01*
X010524Y013234D01*
X009870Y015590D02*
X009683Y015590D01*
X009777Y015590D02*
X009777Y015870D01*
X009683Y015777D01*
X009594Y015870D02*
X009594Y015637D01*
X009547Y015590D01*
X009454Y015590D01*
X009407Y015637D01*
X009407Y015870D01*
X010883Y015820D02*
X010930Y015774D01*
X011024Y015774D01*
X011070Y015820D01*
X011160Y015774D02*
X011346Y015774D01*
X011253Y015774D02*
X011253Y016054D01*
X011160Y015961D01*
X011070Y016007D02*
X011024Y016054D01*
X010930Y016054D01*
X010883Y016007D01*
X010883Y015820D01*
D15*
X014293Y012577D02*
X014293Y012427D01*
X014943Y012237D02*
X015043Y012337D01*
X015213Y011487D02*
X015363Y011487D01*
X014943Y010787D02*
X015043Y010687D01*
X014293Y010547D02*
X014293Y010397D01*
D16*
X013408Y010373D02*
X013408Y010260D01*
X013352Y010203D01*
X013238Y010317D02*
X013238Y010373D01*
X013295Y010430D01*
X013352Y010430D01*
X013408Y010373D01*
X013238Y010373D02*
X013181Y010430D01*
X013125Y010430D01*
X013068Y010373D01*
X013068Y010260D01*
X013125Y010203D01*
X013181Y012303D02*
X013068Y012417D01*
X013408Y012417D01*
X013408Y012530D02*
X013408Y012303D01*
M02*
