G75*
%MOIN*%
%OFA0B0*%
%FSLAX24Y24*%
%IPPOS*%
%LPD*%
%AMOC8*
5,1,8,0,0,1.08239X$1,22.5*
%
%ADD10C,0.1340*%
%ADD11C,0.0680*%
%ADD12C,0.0789*%
%ADD13OC8,0.0600*%
%ADD14C,0.0555*%
D10*
X003582Y001281D03*
X015393Y001281D03*
X015393Y017029D03*
X003582Y017029D03*
D11*
X005355Y010169D02*
X005955Y010169D01*
X005955Y009169D02*
X005355Y009169D01*
X005355Y008169D02*
X005955Y008169D01*
X005800Y006719D02*
X005200Y006719D01*
X005200Y005719D02*
X005800Y005719D01*
X005800Y004719D02*
X005200Y004719D01*
X005200Y003719D02*
X005800Y003719D01*
X005800Y002719D02*
X005200Y002719D01*
D12*
X004541Y013657D02*
X003832Y013657D01*
X003832Y014657D02*
X004541Y014657D01*
D13*
X014143Y012487D03*
X015143Y011487D03*
X014143Y010487D03*
D14*
X013007Y009630D03*
X014097Y007370D03*
X009677Y007230D03*
X007217Y009630D03*
X005307Y010900D03*
X007827Y012480D03*
X007217Y014570D03*
X005307Y014700D03*
X007827Y017170D03*
X012107Y017180D03*
X013007Y015140D03*
X012127Y012890D03*
X009677Y011620D03*
X014107Y002400D03*
M02*
